<svg width="30" height="31" viewBox="0 0 30 31" fill="none" xmlns="http://www.w3.org/2000/svg">
<path opacity="0.4" d="M27.3077 15.5384C27.3077 22.3261 21.7865 27.8461 15 27.8461C8.21355 27.8461 2.69232 22.3261 2.69232 15.5384C2.69232 8.75194 8.21355 3.23071 15 3.23071C21.7865 3.23071 27.3077 8.75194 27.3077 15.5384Z" fill="black"/>
<path d="M20.1949 13.763C20.1949 13.9981 20.1051 14.2344 19.9254 14.4141L15.6546 18.7058C15.4811 18.8793 15.246 18.9765 14.9998 18.9765C14.7549 18.9765 14.5198 18.8793 14.3463 18.7058L10.0731 14.4141C9.71368 14.0535 9.71368 13.4701 10.0755 13.1095C10.4374 12.7501 11.022 12.7513 11.3814 13.1119L14.9998 16.7464L18.6183 13.1119C18.9777 12.7513 19.5611 12.7501 19.9229 13.1095C20.1051 13.2892 20.1949 13.5267 20.1949 13.763Z" fill="black"/>
</svg>
